<svg xmlns="http://www.w3.org/2000/svg" viewBox="87 398 20.57 16.214">
  <defs>
    <style>
      .cls-1 {
        fill: #fff;
      }
    </style>
  </defs>
  <path id="_23" data-name="23" class="cls-1" d="M0,5.194a.867.867,0,0,0,.046.275A.442.442,0,0,0,.23,5.7l4.408,4.408a.63.63,0,0,0,1.033.023A.63.63,0,0,0,5.648,9.1L2.525,5.929H16.9a.735.735,0,1,0,0-1.469H2.525L5.648,1.291A.63.63,0,0,0,5.67.258.63.63,0,0,0,4.637.281L.23,4.689a.442.442,0,0,0-.184.23A.867.867,0,0,0,0,5.194Zm20.57,11.02" transform="translate(87 398)"/>
</svg>
