<svg xmlns="http://www.w3.org/2000/svg" viewBox="306.159 398 22.581 17.799">
  <defs>
    <style>
      .cls-1 {
        fill: #fff;
      }
    </style>
  </defs>
  <path id="_24" data-name="24" class="cls-1" d="M0,5.7a.776.776,0,0,0,.806.806H16.583L13.156,9.987a.691.691,0,0,0-.025,1.134.691.691,0,0,0,1.134-.025L19.1,6.257A.486.486,0,0,0,19.3,6a.932.932,0,0,0,0-.6.486.486,0,0,0-.2-.252L14.264.309A.691.691,0,0,0,13.13.284a.691.691,0,0,0,.025,1.134L16.583,4.9H.806A.776.776,0,0,0,0,5.7ZM22.581,17.8" transform="translate(306.159 398)"/>
</svg>
