<svg xmlns="http://www.w3.org/2000/svg" viewBox="156 267 23.74 23.74">
  <defs>
    <style>
      .cls-1 {
        fill: #67c0c4;
      }
    </style>
  </defs>
  <path id="_7d" data-name="7d" class="cls-1" d="M11.87,0A11.437,11.437,0,0,0,3.477,3.477,11.437,11.437,0,0,0,0,11.87a11.437,11.437,0,0,0,3.477,8.393A11.437,11.437,0,0,0,11.87,23.74a11.437,11.437,0,0,0,8.393-3.477A11.437,11.437,0,0,0,23.74,11.87a11.437,11.437,0,0,0-3.477-8.393A11.437,11.437,0,0,0,11.87,0Zm7.276,19.146a9.91,9.91,0,0,1-7.276,3,9.91,9.91,0,0,1-7.276-3,9.91,9.91,0,0,1-3-7.276,9.91,9.91,0,0,1,3-7.276,9.91,9.91,0,0,1,7.276-3,9.91,9.91,0,0,1,7.276,3,9.91,9.91,0,0,1,3,7.276A9.91,9.91,0,0,1,19.146,19.146Zm-2.558-8.12H12.615V5.463a.795.795,0,1,0-1.589,0V11.82a.765.765,0,0,0,.795.795h4.768a.795.795,0,1,0,0-1.589ZM23.74,22.15" transform="translate(156 267)"/>
</svg>
