<svg xmlns="http://www.w3.org/2000/svg" viewBox="440.122 492.922 97.518 88.318">
  <defs>
    <style>
      .cls-1 {
        fill: #fd7ba4;
      }
    </style>
  </defs>
  <path id="e13a" class="cls-1" d="M69.751,86.98A35.311,35.311,0,0,1,43.824,76.274,21.8,21.8,0,0,0,27.85,69.584a21.8,21.8,0,0,0-15.974,6.691,6.707,6.707,0,0,1-4.934,2.007,6.707,6.707,0,0,1-4.934-2.007,7.069,7.069,0,0,1,0-9.869A35.214,35.214,0,0,1,27.85,55.7,35.214,35.214,0,0,1,53.693,66.406a22.414,22.414,0,0,0,31.948,0,6.979,6.979,0,0,1,9.869,9.869A35.117,35.117,0,0,1,69.751,86.98Zm0-27.934A35.311,35.311,0,0,1,43.824,48.341,21.8,21.8,0,0,0,27.85,41.65a21.8,21.8,0,0,0-15.974,6.691,6.707,6.707,0,0,1-4.934,2.007,6.707,6.707,0,0,1-4.934-2.007,7.069,7.069,0,0,1,0-9.869A35.214,35.214,0,0,1,27.85,27.767,35.214,35.214,0,0,1,53.693,38.472a22.414,22.414,0,0,0,31.948,0,6.979,6.979,0,0,1,9.869,9.869A35.117,35.117,0,0,1,69.751,59.046Zm0-27.934A35.311,35.311,0,0,1,43.824,20.407,21.8,21.8,0,0,0,27.85,13.716a21.8,21.8,0,0,0-15.974,6.691,6.707,6.707,0,0,1-4.934,2.007,6.707,6.707,0,0,1-4.934-2.007A6.609,6.609,0,0,1,0,15.556a6.609,6.609,0,0,1,2.007-4.851A35.214,35.214,0,0,1,27.85,0,35.214,35.214,0,0,1,53.693,10.705,21.8,21.8,0,0,0,69.667,17.4a21.8,21.8,0,0,0,15.974-6.691,7.069,7.069,0,0,1,9.869,0,6.609,6.609,0,0,1,2.007,4.851,6.609,6.609,0,0,1-2.007,4.851A35.117,35.117,0,0,1,69.751,31.112ZM97.518,88.318" transform="translate(440.122 492.922)"/>
</svg>
