<svg xmlns="http://www.w3.org/2000/svg" viewBox="225 265 22.25 25.428">
  <defs>
    <style>
      .cls-1 {
        fill: #b7afaf;
      }
    </style>
  </defs>
  <path id="e870" class="cls-1" d="M9.536,1.589a7.783,7.783,0,0,1,1.577.161,9,9,0,0,1,1.527.459,7.712,7.712,0,0,1,1.329.733,8.377,8.377,0,0,1,2.16,2.16,7.712,7.712,0,0,1,.733,1.329,9,9,0,0,1,.459,1.527,7.783,7.783,0,0,1,.161,1.577,5.858,5.858,0,0,1-.161.956,13.472,13.472,0,0,1-.832,2.247q-.472,1.043-1.13,2.26t-1.453,2.508q-.72,1.192-1.49,2.322t-1.465,2.049q-.5.621-.844,1.031t-.571.633q-.223-.223-.584-.621a13.066,13.066,0,0,1-.832-1.043q-.72-.919-1.478-2.036t-1.5-2.309q-.77-1.266-1.428-2.483t-1.13-2.285a13.242,13.242,0,0,1-.832-2.26,6.072,6.072,0,0,1-.161-.968,7.783,7.783,0,0,1,.161-1.577A9,9,0,0,1,2.21,6.432,7.712,7.712,0,0,1,2.943,5.1,8.377,8.377,0,0,1,5.1,2.943,7.712,7.712,0,0,1,6.432,2.21a9,9,0,0,1,1.527-.459A7.783,7.783,0,0,1,9.536,1.589ZM9.536,0A9.266,9.266,0,0,0,5.823.745,9.642,9.642,0,0,0,.745,5.823,9.266,9.266,0,0,0,0,9.536,10.682,10.682,0,0,0,1.266,13.7a50.969,50.969,0,0,0,2.905,5.277,46.105,46.105,0,0,0,3.2,4.532q1.564,1.925,2.16,1.925h0q.6,0,2.16-1.925a45.4,45.4,0,0,0,3.2-4.544A52.005,52.005,0,0,0,17.8,13.67a10.671,10.671,0,0,0,1.266-4.135,9.266,9.266,0,0,0-.745-3.712A9.642,9.642,0,0,0,13.248.745,9.266,9.266,0,0,0,9.536,0Zm0,5.562A3.985,3.985,0,0,0,5.562,9.536a3.985,3.985,0,0,0,3.973,3.973,3.985,3.985,0,0,0,3.973-3.973A3.985,3.985,0,0,0,9.536,5.562Zm0,6.357A2.374,2.374,0,0,1,7.152,9.536,2.374,2.374,0,0,1,9.536,7.152,2.374,2.374,0,0,1,11.92,9.536,2.374,2.374,0,0,1,9.536,11.92ZM22.25,23.839" transform="translate(225 265)"/>
</svg>
