<svg xmlns="http://www.w3.org/2000/svg" viewBox="1601.333 79.333 19.333 19.333">
  <path id="e874" d="M5.437,6.042a.613.613,0,0,0-.6.6v6.042a.6.6,0,0,0,1.208,0V6.646a.613.613,0,0,0-.6-.6Zm4.833,1.812a.613.613,0,0,0-.6.6v3.625a.6.6,0,0,0,1.208,0V8.458a.613.613,0,0,0-.6-.6ZM14.5,10.271a.6.6,0,0,0,1.208,0V5.437a.6.6,0,0,0-1.208,0ZM14.5,0,9.667,3.625,4.833,1.812,0,4.833v14.5l4.833-3.021,4.833,1.813L14.5,14.5l4.833,3.625V3.625Zm3.625,16.01L14.5,13.292,9.667,16.917,4.833,15.1,1.208,17.37V5.286L4.833,3.021,9.667,4.833,14.5,1.208l3.625,2.719Zm1.208,2.115" transform="translate(1601.333 79.333)"/>
</svg>
