<svg xmlns="http://www.w3.org/2000/svg" viewBox="-210 678.229 34.922 32.771">
  <defs>
    <style>
      .cls-1 {
        fill: #bcbbbb;
      }
    </style>
  </defs>
  <path id="e876" class="cls-1" d="M28.333,4.37A4.239,4.239,0,0,0,27.07,1.28,4.154,4.154,0,0,0,24,0H10.89A4.154,4.154,0,0,0,7.817,1.28,4.239,4.239,0,0,0,6.554,4.37q-5.6,0-6.076.546T0,8.739a6.321,6.321,0,0,0,1.912,4.643,6.321,6.321,0,0,0,4.643,1.912q.171,0,.358-.017t.393-.051a15.569,15.569,0,0,0,1.451,3.089,14.582,14.582,0,0,0,2.065,2.663A11.285,11.285,0,0,0,13.4,22.94a8.866,8.866,0,0,0,2.953,1.024v6.623H13.074a1.092,1.092,0,0,0,0,2.185h8.739a1.092,1.092,0,0,0,0-2.185H18.536V23.964a8.865,8.865,0,0,0,2.953-1.024,11.285,11.285,0,0,0,2.577-1.963,14.582,14.582,0,0,0,2.065-2.663,15.569,15.569,0,0,0,1.451-3.089q.2.034.393.051t.358.017a6.321,6.321,0,0,0,4.643-1.912,6.321,6.321,0,0,0,1.912-4.643q0-3.277-.478-3.823T28.333,4.37ZM6.554,13.109a4.21,4.21,0,0,1-3.089-1.28,4.21,4.21,0,0,1-1.28-3.089q0-1.809.563-2a19.992,19.992,0,0,1,3.806-.188Zm19.594-2.185a11.174,11.174,0,0,1-.683,3.738,13.607,13.607,0,0,1-1.86,3.533,10.44,10.44,0,0,1-2.765,2.629,6.145,6.145,0,0,1-6.793,0,10.44,10.44,0,0,1-2.765-2.629,13.606,13.606,0,0,1-1.86-3.533,11.174,11.174,0,0,1-.683-3.738V4.37a2.088,2.088,0,0,1,.683-1.5,2.055,2.055,0,0,1,1.468-.683H24a2.135,2.135,0,0,1,1.485.666,2.045,2.045,0,0,1,.7,1.519v6.554Zm2.185,2.185V6.554a19.992,19.992,0,0,1,3.806.188q.563.188.563,2a4.21,4.21,0,0,1-1.28,3.089A4.21,4.21,0,0,1,28.333,13.109Zm6.588,18.57" transform="translate(-210 678.229)"/>
</svg>
