<svg xmlns="http://www.w3.org/2000/svg" viewBox="-489 683 31.907 28.166">
  <defs>
    <style>
      .cls-1 {
        fill: #bcbbbb;
      }
    </style>
  </defs>
  <path id="e8d0" class="cls-1" d="M21.381,9.389H10.489q-.77,0-.935.55a4.632,4.632,0,0,0-.165,1.32,4.632,4.632,0,0,0,.165,1.32q.165.55.935.55H21.381q.77,0,.954-.55a4.2,4.2,0,0,0,.183-1.32,4.2,4.2,0,0,0-.183-1.32Q22.151,9.389,21.381,9.389Zm3.777,9.389H10.489q-.77,0-.935.55a5.364,5.364,0,0,0,0,2.641q.165.55.935.55h14.67q.77,0,.935-.55a5.364,5.364,0,0,0,0-2.641Q25.929,18.777,25.159,18.777ZM10.489,3.741h14.67q.77,0,.935-.55a4.632,4.632,0,0,0,.165-1.32A4.632,4.632,0,0,0,26.094.55Q25.929,0,25.159,0H10.489q-.77,0-.935.55a4.632,4.632,0,0,0-.165,1.32,4.632,4.632,0,0,0,.165,1.32Q9.719,3.741,10.489,3.741ZM4.474,9.389H1.1q-.77,0-.935.55A4.632,4.632,0,0,0,0,11.259a4.632,4.632,0,0,0,.165,1.32q.165.55.935.55H4.474q.807,0,.972-.55a4.632,4.632,0,0,0,.165-1.32,4.632,4.632,0,0,0-.165-1.32Q5.281,9.389,4.474,9.389Zm0,9.389H1.1q-.77,0-.935.55a5.364,5.364,0,0,0,0,2.641q.165.55.935.55H4.474q.807,0,.972-.55a5.364,5.364,0,0,0,0-2.641Q5.281,18.777,4.474,18.777ZM4.474,0H1.1Q.33,0,.165.55A4.632,4.632,0,0,0,0,1.87a4.632,4.632,0,0,0,.165,1.32q.165.55.935.55H4.474q.807,0,.972-.55a4.632,4.632,0,0,0,.165-1.32A4.632,4.632,0,0,0,5.446.55Q5.281,0,4.474,0ZM31.907,28.166" transform="translate(-489 683)"/>
</svg>
