<svg xmlns="http://www.w3.org/2000/svg" viewBox="282.838 980.576 26.162 22.424">
  <defs>
    <style>
      .cls-1 {
        fill: #95989a;
      }
    </style>
  </defs>
  <path id="f40a" class="cls-1" d="M9.4,11.446,8.759,10.8l4.321-4.38,4.38,4.38-.7.642L13.548,8.292V22.424h-.934V8.292Zm12.03-4.438a4.431,4.431,0,0,1,3.358,1.46,4.935,4.935,0,0,1,1.372,3.5,4.712,4.712,0,0,1-1.4,3.416,4.568,4.568,0,0,1-3.387,1.431h-5.9v-.934h5.9a3.679,3.679,0,0,0,2.745-1.139,3.826,3.826,0,0,0,1.11-2.774A4.073,4.073,0,0,0,24.089,9.11a3.581,3.581,0,0,0-2.715-1.226L20.5,7.825V6.657A5.5,5.5,0,0,0,18.775,2.54,5.789,5.789,0,0,0,14.6.876a5.506,5.506,0,0,0-3.066.934,6.186,6.186,0,0,0-2.19,2.453l-.35.759-.818-.35A2.591,2.591,0,0,0,7.008,4.38a2.449,2.449,0,0,0-1.664.642,2.748,2.748,0,0,0-.905,1.635l-.058.526-.526.175a4,4,0,0,0-2.1,1.577A4.383,4.383,0,0,0,.934,11.5,4.268,4.268,0,0,0,2.19,14.6a4.123,4.123,0,0,0,3.066,1.285H10.57v.934H5.256A5.079,5.079,0,0,1,1.518,15.3,5.079,5.079,0,0,1,0,11.563,5.2,5.2,0,0,1,.993,8.438a5.091,5.091,0,0,1,2.569-1.9,3.751,3.751,0,0,1,1.2-2.161A3.237,3.237,0,0,1,7.008,3.5a3.347,3.347,0,0,1,1.518.35,6.517,6.517,0,0,1,2.482-2.8A6.7,6.7,0,0,1,14.658,0a6.623,6.623,0,0,1,4.818,1.985A6.479,6.479,0,0,1,21.49,6.774v.117Zm4.73,15.417" transform="translate(282.838 980.576)"/>
</svg>
